# xmcd
#
# Track frame offsets:
#	150
#	17940
#	37519
#	52051
#	70256
#	86160
#	102485
#	121473
#	137760
#	157738
#	173649
#	189912
#	201560
#	218012
#	230949
#	247556
#
# Disc length: 3488 seconds
#
# Revision: 0
# Processed by: cddbd v1.5.2PL0 Copyright (c) Steve Scherf et al.
# Submitted via: dBpowerAMP V4.0
#
DISCID=d90d9e10
DTITLE=Various Artist - My Country Vol 2
DYEAR=2010
DGENRE=
TTITLE0=Taylor Swift - Love story
TTITLE1=Alan Jackson - Gone country
TTITLE2=Josh Turner - Why don't we just dance
TTITLE3=Travis Tritt - It's a great day to be alive
TTITLE4=Rodney Jenkins - It's America 
TTITLE5=Reba McEntire - Consider me gone 
TTITLE6=Gary Allan - Best I ever had 
TTITLE7=James Otto - Groovy little summer song 
TTITLE8=LeAnn Rimes - How do I live 
TTITLE9=Whitney Duncan - Skinny dippin' 
TTITLE10=Clay Walker - Fall 
TTITLE11=Dwight Yoakam - Only hurts me when I cry 
TTITLE12=John Rich - The good lord and the man 
TTITLE13=Luke Bryan - Appologize 
TTITLE14=Jessica Harp - A woman needs 
TTITLE15=Jake Owen - Don't think I can love you 
EXTD=
EXTT0=
EXTT1=
EXTT2=
EXTT3=
EXTT4=
EXTT5=
EXTT6=
EXTT7=
EXTT8=
EXTT9=
EXTT10=
EXTT11=
EXTT12=
EXTT13=
EXTT14=
EXTT15=
PLAYORDER=
